<?xml version="1.0"?><svg width="2000.2471" height="2000.2471" xmlns="http://www.w3.org/2000/svg">

 <metadata id="metadata3728">image/svg+xml</metadata>
 <g style="opacity: 0.03">
  <title>Layer 1</title>
  <path fill="#000"
        d="m1794.245239,541.158447l-786.713989,454.209595l839.72876,-349.153931c-15.456787,-36.284363 -33.19397,-71.349731 -53.014771,-105.055664z" id="path5029-4"/>
  <path fill="#000"
        d="m1887.494141,761.5578l-879.332642,235.615845l903.203735,-120.129089c-5.507935,-39.350708 -13.533813,-77.902527 -23.871094,-115.486755z" id="path5021-4"/>
  <path fill="#000"
        d="m993.804688,1000.039124l-900.509995,119.756531c4.903885,39.377808 12.303154,77.965698 22.037048,115.630127l878.472946,-235.386658z" id="path5009-6"/>
  <path fill="#000"
        d="m994.263184,1001.901794l-840.502838,349.440491c14.931503,36.618408 32.174927,72.040649 51.524963,106.115967l788.977875,-455.556458z" id="path5005-0"/>
  <path fill="#000" id="path5094"
        d="m1917.223755,998.496582l-908.419312,0l901.803589,117.488403c4.756348,-39.151611 6.927979,-78.387817 6.615723,-117.488403z"/>
  <path fill="#000" id="path5096"
        d="m1887.780029,1235.99231l-879.332214,-235.616943l842.262024,347.567139c14.905029,-36.832764 27.230347,-74.232666 37.07019,-111.950195z"/>
  <path fill="#000" id="path5098"
        d="m994.581299,995.678589l-839.742859,-346.542603c-15.441971,36.553955 -28.327881,73.671814 -38.730392,111.15686l878.473251,235.385742z"/>
  <path fill="#000" id="path5100"
        d="m994.044678,997.51709l-902.619057,-117.625671c-5.373703,39.184082 -8.15229,78.478333 -8.427437,117.662415l911.046494,-0.036743l0,0z"/>
  <path fill="#000" id="path5102"
        d="m1793.953735,1457.962891l-786.713989,-454.209595l722.240601,552.649658c23.694824,-31.528076 45.193726,-64.421753 64.473389,-98.440063z"/>
  <path fill="#000" id="path5104"
        d="m1649.707031,1648.918579l-643.715637,-643.716309l555.636658,722.132568c31.324707,-24.445313 60.698853,-50.671875 88.078979,-78.41626z"/>
  <path fill="#000" id="path5106"
        d="m996.331177,994.201416l-553.967163,-719.986267c-31.650269,23.93576 -61.368683,49.637756 -89.120056,76.899719l643.087219,643.086548z"/>
  <path fill="#000" id="path5108"
        d="m994.947327,995.529907l-722.875763,-553.176392c-24.246765,31.240112 -46.301605,63.88443 -66.13678,97.679688l789.012543,455.496704z"/>
  <path fill="#000"
        d="m1459.376709,1793.134399l-454.209656,-786.713989l349.153992,839.72876c36.284302,-15.456787 71.349731,-33.19397 105.055664,-53.014771z" id="path5110"/>
  <path fill="#000"
        d="m1238.977539,1886.383423l-235.615845,-879.332581l120.12915,903.203674c39.350586,-5.507935 77.902466,-13.533813 115.486694,-23.871094z" id="path5112"/>
  <path fill="#000"
        d="m1000.496033,992.693787l-119.756836,-900.509964c-39.377502,4.903893 -77.965393,12.303154 -115.629761,22.037048l235.386597,878.472916z" id="path5114"/>
  <path fill="#000"
        d="m998.629761,993.1521l-349.438049,-840.500275c-36.616638,14.928833 -72.040894,32.168777 -106.11731,51.527084l455.555359,788.97319l0,0z" id="path5116"/>
  <path fill="#000" d="m1001.397339,1917.223511l0,-908.41925l-117.48822,901.803528c39.151428,4.756348 78.387695,6.927979 117.48822,6.615723z"
        id="path5118"/>
  <path fill="#000"
        d="m763.90155,1887.779785l235.617004,-879.332153l-347.567078,842.261719c36.832642,14.905396 74.232422,27.230713 111.950073,37.070435z" id="path5120"/>
  <path fill="#000"
        d="m1004.215332,994.58136l346.542847,-839.742889c-36.554199,-15.441971 -73.671875,-28.327881 -111.157104,-38.730278l-235.385742,878.473167z" id="path5122"/>
  <path fill="#000"
        d="m1002.371216,994.05072l117.625732,-902.618912c-39.174927,-5.382988 -78.469116,-8.161575 -117.662415,-8.436729l0.036682,911.055641l0,0z" id="path5124"/>
  <path fill="#000" id="path5126"
        d="m543.841858,1795.057007l454.209595,-786.714172l-552.649597,722.240784c31.528015,23.694824 64.421722,45.193726 98.440002,64.473389z"/>
  <path fill="#000" id="path5128"
        d="m352.8862,1650.810181l643.716278,-643.715698l-722.132721,555.636597c24.445465,31.324829 50.671753,60.698853 78.416443,88.079102z"/>
  <path fill="#000" id="path5130"
        d="m1007.603333,997.434265l719.986023,-553.967377c-23.935547,-31.650055 -49.637451,-61.368683 -76.899414,-89.119843l-643.086609,643.087219z"/>
  <path fill="#000" id="path5132"
        d="m1006.277771,996.049805l553.171692,-722.874603c-31.242798,-24.24585 -63.879272,-46.30014 -97.680664,-66.135315l-455.491028,789.009918l0,0z"/>
 </g>
</svg>